PathFileType   4   (X/Y/Z)
DataRate	CameraRate	NumFrames	NumMarkers	Units	OrigDataRate	OrigDataStartFrame	OrigNumFrames
120.0	120.0	6	37	mm	120.0	53	105
Frame#	Time	midhip	hip_r	hip_l	knee_r	knee_l	ankle_r	ankle_l	midasis	asis_r	asis_l	psis_r	psis_l	epicondLat_r	epicondLat_l	epicondMed_r	epicondMed_l	malleolusLat_r	malleolusLat_l	malleolusMedv_r	malleolusMedv_l	neck	subclavicle_r	subclavicle_l	sternalnotch	xyphoidprocess	thighwand_r	thighwand_l	upperleg1_r	upperleg1_l	upperleg2_r	upperleg2_l	shankwand_r	shankwand_l	lowerleg1_r	lowerleg1_l	toe_r	toe_l
 	 	X1	Y1	Z1	X2	Y2	Z2	X3	Y3	Z3	X4	Y4	Z4	X5	Y5	Z5	X6	Y6	Z6	X7	Y7	Z7	X8	Y8	Z8	X9	Y9	Z9	X10	Y10	Z10	X11	Y11	Z11	X12	Y12	Z12	X13	Y13	Z13	X14	Y14	Z14	X15	Y15	Z15	X16	Y16	Z16	X17	Y17	Z17	X18	Y18	Z18	X19	Y19	Z19	X20	Y20	Z20	X21	Y21	Z21	X22	Y22	Z22	X23	Y23	Z23	X24	Y24	Z24	X25	Y25	Z25	X26	Y26	Z26	X27	Y27	Z27	X28	Y28	Z28	X29	Y29	Z29	X30	Y30	Z30	X31	Y31	Z31	X32	Y32	Z32	X33	Y33	Z33	X34	Y34	Z34	X35	Y35	Z35	X36	Y36	Z36	X37	Y37	Z37

	53	0.54167	1082.712	710.365	-224.682	1062.447	703.550	-159.570	1074.408	710.912	-289.126	930.797	394.838	-189.432	1215.719	418.065	-267.706	719.162	116.613	-204.303	1296.412	71.425	-259.216	1143.811	769.678	-213.839	1134.627	764.025	-114.370	1152.994	775.331	-313.308	987.672	823.014	-196.720	989.289	822.773	-251.580	921.811	393.423	-135.189	1222.769	417.515	-321.745	952.022	396.472	-235.840	1207.240	384.398	-227.876	708.034	123.197	-169.103	1297.240	70.712	-296.200	723.586	122.475	-229.267	1298.203	69.574	-229.546	1011.909	1182.409	-234.831	1120.800	1127.753	-193.130	1123.524	1130.229	-270.658	1107.564	1127.262	-233.859	1138.721	1046.099	-232.949	1057.819	470.925	-57.642	1294.105	583.419	-265.777	1011.505	549.754	-96.118	1213.817	605.654	-316.654	985.391	468.873	-118.646	1238.004	522.059	-308.750	755.348	225.901	-89.240	1300.669	195.185	-369.322	745.155	193.860	-166.153	1282.086	152.362	-298.779	773.028	36.483	-193.521	1402.290	45.436	-262.624
	54	0.55000	1095.404	710.582	-224.799	1076.686	703.688	-160.588	1087.585	712.235	-290.166	947.523	393.958	-188.451	1229.339	419.543	-267.812	728.743	121.095	-201.591	1297.500	70.597	-258.998	1157.249	770.741	-214.918	1148.898	764.192	-115.632	1165.600	777.290	-314.204	1000.682	823.222	-195.725	1001.925	823.197	-250.630	938.961	392.643	-134.137	1237.382	419.321	-321.715	969.501	393.223	-233.724	1220.930	387.180	-226.442	717.377	128.524	-166.635	1299.515	70.058	-295.939	733.843	127.214	-226.318	1300.576	68.937	-229.323	1023.970	1182.917	-235.288	1132.889	1128.544	-194.024	1134.368	1131.189	-271.438	1119.003	1128.128	-234.466	1150.250	1046.994	-234.235	1075.027	470.913	-57.405	1307.032	585.921	-263.539	1027.499	549.034	-96.387	1228.073	608.431	-315.118	1002.551	467.742	-117.648	1252.412	524.976	-306.857	766.842	231.792	-87.624	1309.927	194.234	-368.516	756.531	199.004	-164.108	1287.100	152.057	-299.026	775.738	36.654	-193.165	1403.859	42.370	-262.507
	55	0.55833	1108.413	711.255	-225.023	1090.753	704.068	-161.745	1100.664	713.775	-291.320	965.414	392.622	-187.211	1242.054	420.656	-268.017	739.924	125.448	-198.757	1298.261	70.056	-258.861	1170.473	772.117	-216.079	1162.893	764.693	-116.983	1178.052	779.541	-315.175	1013.576	823.514	-194.877	1014.413	823.676	-249.778	957.246	391.463	-132.833	1251.107	420.750	-321.760	987.465	389.592	-231.092	1234.437	389.002	-226.550	728.325	133.739	-164.073	1301.141	69.554	-295.745	745.787	131.565	-223.220	1301.829	68.518	-228.962	1035.866	1183.580	-235.719	1144.976	1129.520	-195.029	1144.960	1132.233	-272.122	1130.314	1129.126	-235.030	1161.635	1048.022	-235.484	1093.004	471.086	-56.863	1319.605	587.839	-261.330	1043.969	548.088	-96.286	1241.694	610.964	-313.384	1020.253	466.193	-116.266	1266.315	527.591	-305.457	779.869	237.551	-85.892	1317.570	193.133	-367.844	769.560	203.872	-161.900	1291.742	151.641	-299.269	778.978	37.087	-192.777	1404.975	40.312	-262.515
	56	0.56667	1121.687	712.363	-225.538	1104.489	704.668	-162.955	1113.533	715.425	-292.510	984.462	390.806	-185.718	1253.626	421.403	-268.330	752.694	129.704	-195.866	1298.814	69.747	-258.735	1183.403	773.676	-217.256	1176.497	765.462	-118.323	1190.309	781.891	-316.189	1026.348	823.869	-194.229	1026.754	824.253	-249.091	976.613	389.860	-131.289	1263.565	421.731	-321.915	1009.521	385.048	-228.507	1247.659	389.954	-227.935	740.917	138.821	-161.450	1302.351	69.197	-295.561	759.237	135.385	-220.004	1301.899	68.385	-228.585	1047.679	1184.600	-236.088	1157.097	1130.635	-195.991	1159.732	1133.468	-273.007	1143.830	1130.218	-236.463	1175.618	1049.296	-235.944	1111.543	471.416	-55.973	1331.782	589.016	-259.517	1060.813	546.962	-95.910	1254.412	612.947	-312.108	1039.794	464.368	-114.703	1279.516	529.673	-304.844	794.528	242.968	-84.019	1323.963	192.124	-367.306	784.327	208.131	-159.483	1296.770	151.274	-298.747	782.826	37.966	-192.350	1405.810	39.126	-262.468
	57	0.57500	1134.620	713.474	-226.174	1117.800	705.451	-164.141	1126.132	717.087	-293.668	1004.515	388.597	-184.001	1263.991	421.843	-268.736	766.954	133.983	-193.029	1299.290	69.615	-258.589	1196.007	775.301	-218.390	1189.652	766.426	-119.594	1202.362	784.176	-317.185	1038.860	824.308	-193.803	1038.958	824.966	-248.610	996.897	387.907	-129.535	1274.554	422.260	-322.201	1038.535	379.683	-226.211	1259.421	390.235	-230.393	755.120	143.812	-158.830	1303.219	68.949	-295.374	773.967	138.967	-216.843	1302.285	68.347	-228.325	1059.565	1185.973	-236.396	1169.198	1131.858	-196.961	1167.718	1134.529	-273.685	1153.777	1131.459	-236.497	1184.985	1050.317	-237.517	1130.441	471.871	-54.756	1343.555	589.448	-258.462	1077.923	545.764	-95.410	1266.650	614.322	-311.628	1062.137	462.758	-113.060	1291.861	530.968	-305.139	810.896	247.853	-81.989	1329.060	191.102	-366.989	800.582	211.700	-156.786	1300.889	151.094	-298.064	787.534	39.513	-191.788	1406.386	38.523	-262.310
	58	0.58333	1147.215	714.658	-226.933	1130.610	706.372	-165.242	1138.437	718.702	-294.736	1025.361	386.149	-182.111	1273.219	422.053	-269.196	782.516	138.462	-190.376	1299.824	69.586	-258.441	1208.266	776.900	-219.404	1202.301	767.502	-120.708	1214.231	786.298	-318.099	1051.046	824.842	-193.599	1050.976	825.848	-248.346	1017.902	385.730	-127.621	1284.064	422.382	-322.605	1048.350	377.275	-222.374	1268.666	390.183	-233.060	770.807	148.805	-156.285	1303.793	68.764	-295.218	789.525	142.877	-214.112	1303.176	68.221	-228.163	1071.500	1187.444	-236.708	1181.163	1133.175	-197.874	1180.316	1135.905	-274.372	1166.068	1132.806	-237.418	1197.291	1051.667	-238.253	1149.531	472.429	-53.297	1354.923	589.218	-258.368	1095.222	544.481	-94.821	1278.644	614.970	-312.117	1077.056	460.713	-111.128	1303.062	531.280	-306.177	828.967	252.073	-79.791	1332.742	190.029	-366.991	818.084	214.943	-154.007	1303.496	150.907	-298.044	793.410	41.982	-190.996	1406.723	38.214	-262.104
